<?xml version="1.0" encoding="UTF-8" standalone="no"?>
<!-- Created with Inkscape (http://www.inkscape.org/) -->

<svg
   width="279.51196mm"
   height="201.57455mm"
   viewBox="0 0 279.51196 201.57456"
   version="1.1"
   id="svg5"
   inkscape:version="1.1.2 (0a00cf5339, 2022-02-04)"
   sodipodi:docname="hydraulic_circuit.svg"
   xmlns:inkscape="http://www.inkscape.org/namespaces/inkscape"
   xmlns:sodipodi="http://sodipodi.sourceforge.net/DTD/sodipodi-0.dtd"
   xmlns:xlink="http://www.w3.org/1999/xlink"
   xmlns="http://www.w3.org/2000/svg"
   xmlns:svg="http://www.w3.org/2000/svg">
  <sodipodi:namedview
     id="namedview7"
     pagecolor="#ffffff"
     bordercolor="#666666"
     borderopacity="1.0"
     inkscape:pageshadow="2"
     inkscape:pageopacity="0.0"
     inkscape:pagecheckerboard="0"
     inkscape:document-units="mm"
     showgrid="false"
     inkscape:zoom="0.74742565"
     inkscape:cx="460.24645"
     inkscape:cy="507.07385"
     inkscape:window-width="1920"
     inkscape:window-height="1011"
     inkscape:window-x="1920"
     inkscape:window-y="32"
     inkscape:window-maximized="1"
     inkscape:current-layer="layer1" />
  <defs
     id="defs2">
    <linearGradient
       inkscape:collect="always"
       id="linearGradient5506">
      <stop
         style="stop-color:#e6e6e6;stop-opacity:1"
         offset="0"
         id="stop5502" />
      <stop
         style="stop-color:#666666;stop-opacity:1"
         offset="1"
         id="stop5504" />
    </linearGradient>
    <linearGradient
       id="linearGradient3890"
       inkscape:swatch="solid">
      <stop
         style="stop-color:#666666;stop-opacity:1;"
         offset="0"
         id="stop3888" />
    </linearGradient>
    <linearGradient
       id="linearGradient3866"
       inkscape:swatch="solid">
      <stop
         style="stop-color:#666666;stop-opacity:1;"
         offset="0"
         id="stop3864" />
    </linearGradient>
    <radialGradient
       inkscape:collect="always"
       xlink:href="#linearGradient5506"
       id="radialGradient5721"
       cx="121.15436"
       cy="103.30171"
       fx="121.15436"
       fy="103.30171"
       r="72.099014"
       gradientTransform="matrix(3.4101895,0.00872325,-7.8529419e-4,0.22983834,-326.27583,60.157163)"
       gradientUnits="userSpaceOnUse" />
  </defs>
  <g
     inkscape:label="Layer 1"
     inkscape:groupmode="layer"
     id="layer1"
     transform="translate(-10.509098,18.202949)">
    <path
       style="fill:none;stroke:#000000;stroke-width:2;stroke-linecap:butt;stroke-linejoin:miter;stroke-miterlimit:4;stroke-dasharray:none;stroke-opacity:1"
       d="m 13.860668,84.72576 c 14.162551,0 72.42749,0 72.42749,0"
       id="path5949" />
    <path
       style="fill:none;stroke:#000000;stroke-width:2;stroke-linecap:butt;stroke-linejoin:miter;stroke-miterlimit:4;stroke-dasharray:none;stroke-opacity:1"
       d="M 86.858988,102.16055 V 68.385599"
       id="path6064" />
    <rect
       style="opacity:0.699055;fill:url(#radialGradient5721);fill-opacity:1;stroke:#000000;stroke-width:0.251403;stroke-linejoin:round;paint-order:markers fill stroke"
       id="rect5470"
       width="75.242996"
       height="34.021404"
       x="49.181046"
       y="67.946014" />
    <path
       style="fill:#000000;stroke-width:0.706084;stroke-miterlimit:4;stroke-dasharray:none"
       d="m 119.53242,123.47917 -5.05858,5.05851 v 5.05064 5.05063 h -0.28815 -0.28815 v -5.05056 -5.05054 l -5.06613,-5.06621 -5.06611,-5.06618 0.20714,-0.20902 0.20712,-0.20899 5.0111,5.01103 5.01109,5.011 5.01006,-5.01013 5.01005,-5.01013 0.18458,0.18265 c 0.10144,0.10044 0.18457,0.19754 0.18457,0.21571 0,0.0182 -2.27637,2.3094 -5.05859,5.09159 z m 1.05509,-4.47326 c -0.1807,2.20546 -1.49937,4.1704 -3.48237,5.189 -2.40944,1.23763 -5.3716,0.80664 -7.3347,-1.0672 -0.5724,-0.5464 -1.01437,-1.15619 -1.36099,-1.87788 -0.41974,-0.87391 -0.59288,-1.59552 -0.61896,-2.57987 -0.0101,-0.3843 -0.002,-0.73263 0.0219,-0.92848 0.36789,-3.01501 2.71432,-5.33066 5.72495,-5.6498 l 0.36019,-0.0382 v -5.11674 -5.1167 h 0.28813 0.28814 v 5.1167 5.11674 l 0.3762,0.0389 c 3.08033,0.31936 5.48135,2.78022 5.73824,5.88128 0.0352,0.42461 0.0351,0.59514 -7.3e-4,1.03213 z m -0.57688,-1.06804 c -0.26263,-2.69653 -2.30542,-4.84711 -4.98431,-5.24728 -0.65656,-0.0981 -1.60903,-0.0502 -2.25514,0.11307 -1.93713,0.49001 -3.52528,1.97168 -4.13422,3.85703 -0.22091,0.68395 -0.26135,0.96322 -0.26184,1.80782 -3.7e-4,0.65446 0.008,0.79855 0.0714,1.10694 0.31755,1.56533 1.19745,2.88741 2.5054,3.76447 1.11553,0.74807 2.4786,1.08899 3.81458,0.95414 1.84374,-0.18609 3.49023,-1.23369 4.44649,-2.82914 0.62688,-1.04593 0.91506,-2.32038 0.79754,-3.5271 z"
       id="path6548" />
    <path
       style="fill:#000000;stroke-width:0.706084;stroke-miterlimit:4;stroke-dasharray:none"
       d="m 118.88264,52.802447 -5.05858,5.05851 v 5.05064 5.05063 h -0.28815 -0.28815 v -5.05056 -5.05054 l -5.06613,-5.06621 -5.06611,-5.06618 0.20714,-0.20902 0.20712,-0.20899 5.0111,5.01103 5.01109,5.011 5.01006,-5.01013 5.01005,-5.01013 0.18458,0.18265 c 0.10144,0.10044 0.18457,0.19754 0.18457,0.21571 0,0.0182 -2.27637,2.3094 -5.05859,5.09159 z m 1.0551,-4.47326 c -0.1807,2.20546 -1.49937,4.1704 -3.48237,5.189 -2.40945,1.23763 -5.37161,0.80664 -7.3347,-1.0672 -0.5724,-0.5464 -1.01437,-1.15619 -1.36099,-1.87788 -0.41975,-0.87391 -0.59288,-1.59552 -0.61896,-2.57987 -0.0101,-0.3843 -0.002,-0.73263 0.0219,-0.92848 0.36789,-3.01501 2.71432,-5.33066 5.72494,-5.6498 l 0.36019,-0.0382 v -5.11674 -5.1167 h 0.28813 0.28814 v 5.1167 5.11674 l 0.3762,0.0389 c 3.08033,0.31936 5.48135,2.78022 5.73824,5.88128 0.0352,0.42461 0.0351,0.59514 -7.3e-4,1.03213 z m -0.57688,-1.06804 c -0.26264,-2.69653 -2.30542,-4.84711 -4.98431,-5.24728 -0.65656,-0.0981 -1.60903,-0.0502 -2.25514,0.11307 -1.93713,0.49001 -3.52528,1.97168 -4.13422,3.85703 -0.22091,0.68395 -0.26135,0.96322 -0.26184,1.80782 -3.7e-4,0.65446 0.008,0.79855 0.0714,1.10694 0.31754,1.56533 1.19745,2.88741 2.50539,3.76447 1.11554,0.74807 2.4786,1.08899 3.81459,0.95414 1.84373,-0.18609 3.49022,-1.23369 4.44648,-2.82914 0.62688,-1.04593 0.91506,-2.32038 0.79754,-3.5271 z"
       id="path6548-6" />
    <path
       style="fill:#000000;stroke-width:0.706084;stroke-miterlimit:4;stroke-dasharray:none"
       d="m 65.415488,123.47912 -5.05858,5.05851 v 5.05064 5.05063 h -0.28815 -0.28815 v -5.05056 -5.05054 l -5.06613,-5.06621 -5.06611,-5.06618 0.20714,-0.20902 0.20712,-0.20899 5.0111,5.01103 5.01109,5.011 5.01006,-5.01013 5.01005,-5.01013 0.18458,0.18265 c 0.10144,0.10044 0.18457,0.19754 0.18457,0.21571 0,0.0182 -2.27637,2.3094 -5.05859,5.09159 z m 1.05509,-4.47326 c -0.1807,2.20546 -1.49937,4.1704 -3.48237,5.189 -2.40944,1.23763 -5.3716,0.80664 -7.3347,-1.0672 -0.5724,-0.5464 -1.01437,-1.15619 -1.36099,-1.87788 -0.41974,-0.87391 -0.59288,-1.59552 -0.61896,-2.57987 -0.0101,-0.3843 -0.002,-0.73263 0.0219,-0.92848 0.36789,-3.01501 2.71432,-5.33066 5.72495,-5.6498 l 0.36019,-0.0382 v -5.11674 -5.1167 h 0.28813 0.28814 v 5.1167 5.11674 l 0.3762,0.0389 c 3.08033,0.31936 5.48135,2.78022 5.73824,5.88128 0.0352,0.42461 0.0351,0.59514 -7.3e-4,1.03213 z m -0.57688,-1.06804 c -0.26263,-2.69653 -2.30542,-4.84711 -4.98431,-5.24728 -0.65656,-0.0981 -1.60903,-0.0502 -2.25514,0.11307 -1.93713,0.49001 -3.52528,1.97168 -4.13422,3.85703 -0.22091,0.68395 -0.26135,0.96322 -0.26184,1.80782 -3.7e-4,0.65446 0.008,0.79855 0.0714,1.10694 0.31755,1.56533 1.19745,2.88741 2.5054,3.76447 1.11553,0.74807 2.4786,1.08899 3.81458,0.95414 1.84374,-0.18609 3.49023,-1.23369 4.44649,-2.82914 0.62688,-1.04593 0.91506,-2.32038 0.79754,-3.5271 z"
       id="path6548-3" />
    <path
       style="fill:#000000;stroke-width:0.706084;stroke-miterlimit:4;stroke-dasharray:none"
       d="m 65.944645,52.802447 -5.05858,5.05851 v 5.05064 5.05063 h -0.28815 -0.28815 v -5.05056 -5.05054 l -5.06613,-5.06621 -5.066108,-5.06618 0.20714,-0.20902 0.20712,-0.20899 5.011098,5.01103 5.01109,5.011 5.01006,-5.01013 5.01005,-5.01013 0.18458,0.18265 c 0.10144,0.10044 0.18457,0.19754 0.18457,0.21571 0,0.0182 -2.27637,2.3094 -5.05859,5.09159 z m 1.0551,-4.47326 c -0.1807,2.20546 -1.49937,4.1704 -3.48237,5.189 -2.40945,1.23763 -5.37161,0.80664 -7.3347,-1.0672 -0.5724,-0.5464 -1.01437,-1.15619 -1.36099,-1.87788 -0.41975,-0.87391 -0.59288,-1.59552 -0.61896,-2.57987 -0.0101,-0.3843 -0.002,-0.73263 0.0219,-0.92848 0.36789,-3.01501 2.71432,-5.33066 5.72494,-5.6498 l 0.36019,-0.0382 v -5.11674 -5.1167 h 0.28813 0.28814 v 5.1167 5.11674 l 0.3762,0.0389 c 3.08033,0.31936 5.48135,2.78022 5.73824,5.88128 0.0352,0.42461 0.0351,0.59514 -7.3e-4,1.03213 z m -0.57688,-1.06804 c -0.26264,-2.69653 -2.30542,-4.84711 -4.98431,-5.24728 -0.65656,-0.0981 -1.60903,-0.0502 -2.25514,0.11307 -1.93713,0.49001 -3.52528,1.97168 -4.13422,3.85703 -0.22091,0.68395 -0.26135,0.96322 -0.26184,1.80782 -3.7e-4,0.65446 0.008,0.79855 0.0714,1.10694 0.31754,1.56533 1.19745,2.88741 2.50539,3.76447 1.11554,0.74807 2.4786,1.08899 3.81459,0.95414 1.84373,-0.18609 3.49022,-1.23369 4.44648,-2.82914 0.62688,-1.04593 0.91506,-2.32038 0.79754,-3.5271 z"
       id="path6548-6-7" />
    <path
       style="fill:#000000;stroke:#000000;stroke-width:0.8;stroke-linecap:butt;stroke-linejoin:miter;stroke-miterlimit:4;stroke-dasharray:none;stroke-opacity:1"
       d="m 60.886024,31.143315 c 14.91909,0 137.910256,0 137.910256,0"
       id="path6782" />
    <g
       id="g7449"
       transform="translate(-32.689434,-8.1241509)">
      <ellipse
         style="fill:#f0e442;fill-opacity:1;stroke:#000000;stroke-width:1.09516;stroke-linejoin:round;stroke-miterlimit:4;stroke-dasharray:none;paint-order:markers fill stroke"
         id="path6940"
         cx="161.22124"
         cy="10.294814"
         rx="14.491159"
         ry="19.826033" />
      <path
         style="fill:none;stroke:#000000;stroke-width:1;stroke-linecap:butt;stroke-linejoin:miter;stroke-miterlimit:4;stroke-dasharray:none;stroke-opacity:1"
         d="m 147.2325,4.6170321 h 28.44362"
         id="path7136" />
      <path
         sodipodi:type="star"
         style="fill:#000000;fill-opacity:1;stroke:#000000;stroke-width:3.77953;stroke-linejoin:round;stroke-miterlimit:4;stroke-dasharray:none;paint-order:markers fill stroke"
         id="path7346"
         inkscape:flatsided="true"
         sodipodi:sides="3"
         sodipodi:cx="-195.23656"
         sodipodi:cy="54.913177"
         sodipodi:r1="27.770645"
         sodipodi:r2="13.885322"
         sodipodi:arg1="0.52684214"
         sodipodi:arg2="1.5740397"
         inkscape:rounded="0"
         inkscape:randomized="0"
         d="m -171.23163,68.87643 -48.09992,-0.156006 24.18506,-41.577746 z"
         transform="matrix(-0.12842331,0,0,-0.12842331,136.13837,7.3119687)"
         inkscape:transform-center-x="-0.0057826556"
         inkscape:transform-center-y="0.88658569" />
    </g>
    <path
       style="fill:#000000;stroke:#000000;stroke-width:0.8;stroke-linecap:butt;stroke-linejoin:miter;stroke-miterlimit:4;stroke-dasharray:none;stroke-opacity:1"
       d="m 129.13743,22.057804 c 0,1.033321 0,9.551897 0,9.551897"
       id="path6782-5" />
    <path
       style="fill:#000000;stroke-width:0.607479;stroke-miterlimit:4;stroke-dasharray:none"
       d="m 171.66779,108.35694 -0.20617,0.20616 h -1.87442 -1.87445 v 3.84381 3.84384 h -0.77581 -0.77583 v -3.84384 -3.84381 l -1.85139,-0.002 c -1.64761,-0.002 -1.86793,-0.015 -2.00181,-0.12343 -0.19515,-0.15809 -0.308,-0.38353 -0.308,-0.6153 0,-0.10728 0.45624,-1.00842 1.08246,-2.13814 0.59535,-1.07404 1.5156,-2.73614 2.04503,-3.69355 l 0.96257,-1.74072 -2.04502,-3.698557 c -1.49381,-2.7016 -2.04504,-3.759903 -2.04504,-3.926244 0,-0.164946 0.0661,-0.293832 0.23979,-0.467523 l 0.2398,-0.239793 h 1.8402 1.8402 l 0.0182,-3.826174 0.0182,-3.826201 0.75818,-0.02003 0.75818,-0.02003 v 3.846233 3.846198 h 1.79517 c 1.9379,0 2.09052,0.0244 2.26553,0.362882 0.22276,0.430748 0.43822,-0.007 -3.46829,7.046473 -0.24825,0.44821 -0.45135,0.864136 -0.45135,0.924276 0,0.0602 0.77152,1.5025 1.71449,3.20523 0.94298,1.70273 1.84751,3.33782 2.01007,3.63353 0.36727,0.66804 0.3884,0.96729 0.0894,1.26627 z m -3.26316,-3.92318 c -0.7832,-1.41401 -1.44177,-2.57048 -1.46347,-2.56993 -0.0337,7.8e-4 -2.81771,4.97705 -2.88416,5.15515 -0.0136,0.0363 1.20214,0.0631 2.87406,0.0631 1.59366,0 2.89756,-0.0174 2.89756,-0.0387 0,-0.0213 -0.64079,-1.19557 -1.42399,-2.60958 z m -1.46769,-11.034383 c -1.59043,0 -2.89169,0.01723 -2.89169,0.03851 0,0.105949 2.85577,5.180877 2.90598,5.164151 0.0616,-0.0205 2.87631,-5.058693 2.877,-5.149716 2.1e-4,-0.02915 -1.30086,-0.05285 -2.89129,-0.05285 z"
       id="path7570" />
    <path
       style="fill:#000000;stroke:#000000;stroke-width:0.8;stroke-linecap:butt;stroke-linejoin:miter;stroke-miterlimit:4;stroke-dasharray:none;stroke-opacity:1"
       d="m 184.41882,84.402594 c -1.96816,0 -18.19345,0 -18.19345,0"
       id="path6782-3-5" />
    <g
       id="g8355"
       transform="translate(0.15063705,-1.697161)">
      <rect
         style="fill:none;fill-opacity:1;stroke:#d55e00;stroke-width:1.5;stroke-linejoin:round;stroke-miterlimit:4;stroke-dasharray:none;stroke-opacity:1;paint-order:markers fill stroke"
         id="rect7746"
         width="55.56358"
         height="42.382542"
         x="183.60994"
         y="69.244659" />
      <path
         style="fill:none;stroke:#d55e00;stroke-width:1.5;stroke-linecap:butt;stroke-linejoin:miter;stroke-miterlimit:4;stroke-dasharray:none;stroke-opacity:1"
         d="M 183.60994,111.6272 239.17352,69.244659"
         id="path7881"
         sodipodi:nodetypes="cc" />
    </g>
    <path
       style="fill:#000000;stroke-width:0.706084;stroke-miterlimit:4;stroke-dasharray:none"
       d="m 193.1614,46.303095 5.05858,-5.05851 v -5.05064 -5.05063 h 0.28815 0.28815 v 5.05056 5.05054 l 5.06613,5.06621 5.06611,5.06618 -0.20714,0.20902 -0.20712,0.20899 -5.0111,-5.01103 -5.01109,-5.011 -5.01006,5.01013 -5.01005,5.01013 -0.18458,-0.18265 c -0.10144,-0.10044 -0.18457,-0.19754 -0.18457,-0.21571 0,-0.0182 2.27637,-2.3094 5.05859,-5.09159 z m -1.05509,4.47326 c 0.1807,-2.20546 1.49937,-4.1704 3.48237,-5.189 2.40944,-1.23763 5.3716,-0.80664 7.3347,1.0672 0.5724,0.5464 1.01437,1.15619 1.36099,1.87788 0.41974,0.87391 0.59288,1.59552 0.61896,2.57987 0.0101,0.3843 0.002,0.73263 -0.0219,0.92848 -0.36789,3.01501 -2.71432,5.33066 -5.72495,5.6498 l -0.36019,0.0382 v 5.11674 5.1167 h -0.28813 -0.28814 v -5.1167 -5.11674 l -0.3762,-0.0389 c -3.08033,-0.31936 -5.48135,-2.78022 -5.73824,-5.88128 -0.0352,-0.42461 -0.0351,-0.59514 7.3e-4,-1.03213 z m 0.57688,1.06804 c 0.26263,2.69653 2.30542,4.84711 4.98431,5.24728 0.65656,0.0981 1.60903,0.0502 2.25514,-0.11307 1.93713,-0.49001 3.52528,-1.97168 4.13422,-3.85703 0.22091,-0.68395 0.26135,-0.96322 0.26184,-1.80782 3.7e-4,-0.65446 -0.008,-0.79855 -0.0714,-1.10694 -0.31755,-1.56533 -1.19745,-2.88741 -2.5054,-3.76447 -1.11553,-0.74807 -2.4786,-1.08899 -3.81458,-0.95414 -1.84374,0.18609 -3.49023,1.23369 -4.44649,2.82914 -0.62688,1.04593 -0.91506,2.32038 -0.79754,3.5271 z"
       id="path6548-62" />
    <path
       style="fill:#000000;fill-opacity:1;stroke:#000000;stroke-width:0.0458957;stroke-opacity:1"
       d="m 152.67987,50.180131 c -0.22076,-0.15215 -0.22522,-0.17368 -0.22676,-1.09339 -0.002,-0.95783 0.0122,-1.01476 0.27132,-1.12211 0.19965,-0.0827 0.43328,-0.025 0.57352,0.1417 0.1103,0.13107 0.11751,0.17024 0.11751,0.63816 v 0.49852 l 0.19894,0.0298 c 0.10941,0.0164 0.21904,0.0435 0.24361,0.0602 0.11193,0.076 0.19999,0.27369 0.19999,0.44887 0,0.16183 -0.0252,0.21368 -0.16223,0.33401 -0.15888,0.13949 -0.17196,0.14244 -0.63233,0.14244 -0.3679,0 -0.49476,-0.017 -0.58357,-0.0782 z m 2.66195,0 c -0.18243,-0.12573 -0.22521,-0.20712 -0.22676,-0.43141 -0.002,-0.29697 0.13325,-0.43574 0.46528,-0.47723 0.30886,-0.0386 2.14603,-0.007 2.24353,0.0385 0.11811,0.0552 0.22705,0.28562 0.22705,0.48024 0,0.15227 -0.0274,0.20727 -0.16223,0.32566 l -0.16223,0.14244 h -1.13558 c -0.99487,0 -1.14965,-0.01 -1.24906,-0.0782 z m 3.99292,0 c -0.18243,-0.12573 -0.22521,-0.20712 -0.22676,-0.43141 -0.002,-0.29697 0.13325,-0.43574 0.46528,-0.47723 0.30887,-0.0386 2.14604,-0.007 2.24354,0.0385 0.1181,0.0552 0.22704,0.28562 0.22704,0.48024 0,0.15227 -0.0274,0.20727 -0.16223,0.32566 l -0.16223,0.14244 h -1.13558 c -0.99487,0 -1.14965,-0.01 -1.24906,-0.0782 z m 4.05789,0.0332 c -0.15549,-0.0628 -0.29319,-0.273 -0.29319,-0.4475 0,-0.20484 0.12831,-0.42034 0.27492,-0.46174 0.0634,-0.0179 0.62214,-0.0325 1.24173,-0.0325 1.26334,0 1.31876,0.0125 1.42014,0.31965 0.0745,0.22557 -0.005,0.45137 -0.20286,0.57338 -0.14201,0.0878 -0.22138,0.0935 -1.24773,0.0908 -0.60285,-10e-4 -1.1397,-0.0205 -1.19301,-0.0421 z m 3.99292,0 c -0.15549,-0.0628 -0.29318,-0.273 -0.29318,-0.4475 0,-0.20484 0.1283,-0.42034 0.27491,-0.46174 0.0634,-0.0179 0.62214,-0.0325 1.24173,-0.0325 1.26334,0 1.31877,0.0125 1.42014,0.31965 0.0745,0.22557 -0.005,0.45137 -0.20286,0.57338 -0.14201,0.0878 -0.22138,0.0935 -1.24773,0.0908 -0.60285,-10e-4 -1.1397,-0.0205 -1.19301,-0.0421 z m 3.93955,-0.047 c -0.0827,-0.0504 -0.17045,-0.14461 -0.19506,-0.20935 -0.0246,-0.0647 -0.0448,-0.61306 -0.0448,-1.21849 0,-0.89207 0.0131,-1.12621 0.0693,-1.23484 0.0884,-0.17098 0.19827,-0.22856 0.43605,-0.22856 0.14895,0 0.21918,0.0291 0.32429,0.13416 l 0.13415,0.13416 v 1.21501 1.21501 l -0.16223,0.14244 c -0.18982,0.16666 -0.34789,0.18086 -0.56177,0.0505 z m -18.65429,-3.32994 c -0.0688,-0.0373 -0.14623,-0.10743 -0.17211,-0.15578 -0.0286,-0.0536 -0.047,-0.55166 -0.047,-1.27401 0,-1.29866 0.005,-1.32392 0.27278,-1.43492 0.19965,-0.0827 0.43328,-0.025 0.57352,0.1417 l 0.11751,0.13964 v 1.17141 1.17141 l -0.15604,0.15604 c -0.17489,0.17489 -0.37036,0.20295 -0.58861,0.0845 z m 18.63248,-0.66647 c -0.19601,-0.11417 -0.218,-0.25733 -0.218,-1.41909 0,-0.89676 0.0131,-1.13142 0.0693,-1.2401 0.0884,-0.17098 0.19827,-0.22856 0.43605,-0.22856 0.14895,0 0.21918,0.029 0.32428,0.13416 l 0.13416,0.13415 v 1.20035 1.20035 l -0.13416,0.13416 c -0.10765,0.10765 -0.17338,0.13388 -0.33274,0.13276 -0.10922,-9e-4 -0.23473,-0.0224 -0.2789,-0.0482 z m -18.63248,-3.32646 c -0.0688,-0.0373 -0.14623,-0.10743 -0.17211,-0.15578 -0.0287,-0.0536 -0.047,-0.55601 -0.047,-1.28774 v -1.19984 l 0.13416,-0.13416 c 0.21831,-0.21831 0.59636,-0.17071 0.75322,0.0948 0.0659,0.1115 0.0764,0.28926 0.0764,1.28576 v 1.15638 l -0.15604,0.15604 c -0.17489,0.17488 -0.37035,0.20295 -0.58861,0.0845 z m 18.63248,-0.66646 c -0.18907,-0.11013 -0.218,-0.27072 -0.218,-1.21028 v -0.89724 h -4.15356 c -4.09236,0 -4.15491,-0.001 -4.24535,-0.0918 -0.0904,-0.0904 -0.0918,-0.15298 -0.0918,-4.24535 v -4.15355 h -3.87453 -3.87454 l -0.0298,0.13545 c -0.086,0.3917 -0.65144,0.9971 -1.14023,1.22087 l -0.26008,0.11907 v 0.73324 c 0,0.81257 -0.0347,0.94846 -0.27387,1.07213 -0.1756,0.0908 -0.32144,0.0881 -0.46172,-0.009 -0.21866,-0.1507 -0.22522,-0.1797 -0.22676,-1.0016 l -10e-4,-0.78149 -0.2995,-0.13047 c -0.16473,-0.0718 -0.40596,-0.2261 -0.53607,-0.34296 -0.26243,-0.23571 -0.56481,-0.67158 -0.61063,-0.8802 l -0.0297,-0.13545 h -4.08335 c -4.38637,0 -4.27414,0.006 -4.3987,-0.22694 -0.0893,-0.16693 -0.056,-0.444 0.0716,-0.59566 l 0.11882,-0.14121 h 4.12333 4.12333 l 0.16223,-0.33729 c 0.39115,-0.81324 1.09606,-1.22496 1.99006,-1.16234 0.7128,0.0499 1.30256,0.46709 1.65006,1.16715 l 0.16529,0.333 3.83666,-0.0117 3.83665,-0.0117 0.0117,-4.15813 0.0117,-4.15814 0.0964,-0.0872 c 0.093,-0.0842 0.26219,-0.088 4.89912,-0.11015 l 4.80277,-0.0229 0.86054,-0.20405 c 0.4733,-0.11223 0.86055,-0.21566 0.86055,-0.22984 0,-0.0142 -1.35139,-0.36337 -3.00308,-0.77598 -1.9755,-0.4935 -3.0115,-0.77213 -3.02767,-0.81429 -0.0196,-0.051 0.005,-0.19619 0.0348,-0.20338 0.004,-8.9e-4 1.37832,-0.34852 3.05492,-0.77255 l 3.04837,-0.77096 -1.30433,-0.32627 -1.30433,-0.32626 -3.84993,0.87152 c -2.11746,0.47933 -3.88329,0.86509 -3.92407,0.85724 -0.0484,-0.009 -0.0742,-0.0615 -0.0742,-0.15006 v -0.13578 l 3.54423,-0.80182 c 1.94932,-0.44101 3.53577,-0.81029 3.52544,-0.82063 -0.0103,-0.0103 -0.62194,-0.16985 -1.35911,-0.35447 -0.73718,-0.18463 -1.35557,-0.36035 -1.3742,-0.3905 -0.11788,-0.19073 -0.10547,-0.19471 3.0332,-0.97067 1.66266,-0.41105 3.00815,-0.7601 2.98998,-0.77566 -0.0182,-0.0156 -1.36515,-0.35381 -2.99329,-0.75164 -1.62815,-0.39784 -2.98548,-0.74706 -3.01628,-0.77605 -0.0308,-0.029 -0.0447,-0.0959 -0.0309,-0.14866 0.0219,-0.0839 0.24457,-0.15512 1.76601,-0.56524 0.95751,-0.25811 1.77688,-0.46244 1.82084,-0.45406 0.0995,0.019 0.12885,0.18803 0.0447,0.25783 -0.0344,0.0286 -0.56722,0.18776 -1.18402,0.35379 -0.61681,0.16602 -1.23507,0.33506 -1.3739,0.37564 l -0.25243,0.0738 0.89497,0.22089 c 0.49223,0.12149 1.86913,0.46044 3.05978,0.75323 1.45579,0.35799 2.17308,0.5539 2.19007,0.59818 0.0451,0.11746 -0.0235,0.20154 -0.20388,0.25012 -0.0972,0.0262 -1.43234,0.35735 -2.96702,0.73595 -1.53468,0.3786 -2.82131,0.70084 -2.85918,0.71609 -0.0379,0.0153 0.52952,0.1786 1.26086,0.36301 l 1.32969,0.33529 2.02069,-0.45774 c 1.11138,-0.25176 2.17042,-0.49109 2.35343,-0.53185 0.19075,-0.0425 0.33274,-0.098 0.33274,-0.13009 0,-0.0308 -0.031,-0.1438 -0.0688,-0.25112 -0.0379,-0.10732 -0.0688,-0.21318 -0.0688,-0.23525 0,-0.0471 1.42902,-0.0527 2.55684,-0.01 l 0.78985,0.03 -1.42777,0.70502 c -0.78528,0.38775 -1.44018,0.69288 -1.45535,0.67805 -0.0152,-0.0148 -0.0689,-0.14615 -0.11935,-0.29182 l -0.0918,-0.26486 -2.03021,0.45999 c -1.11662,0.25299 -2.02169,0.4685 -2.01128,0.47891 0.0104,0.0104 0.60207,0.16673 1.3148,0.34737 1.33281,0.3378 1.48584,0.40141 1.32609,0.55117 -0.0374,0.0351 -1.41459,0.40207 -3.06034,0.81551 -1.64576,0.41343 -2.97788,0.76432 -2.96027,0.77975 0.0176,0.0154 1.37826,0.36358 3.02367,0.77366 1.96455,0.48961 3.00009,0.76755 3.0162,0.80954 0.0436,0.1137 -0.0238,0.19879 -0.19512,0.24608 -0.0921,0.0254 -0.37405,0.093 -0.6265,0.15006 l -0.45899,0.10381 3.28822,0.0229 c 3.1487,0.022 3.29231,0.0267 3.38457,0.11016 0.0963,0.0872 0.0963,0.0873 0.10805,4.24535 l 0.0117,4.15814 4.97968,0.0234 c 2.73883,0.0129 4.98515,0.0284 4.99183,0.0344 0.007,0.006 0.0531,0.0781 0.1031,0.16012 0.14063,0.23066 0.11975,0.42819 -0.0648,0.61271 l -0.15605,0.15605 h -4.93837 -4.93837 v 4.17088 c 0,3.82345 -0.006,4.17613 -0.0759,4.23387 -0.0626,0.052 -0.80229,0.067 -4.23388,0.0859 l -4.15799,0.0229 -0.023,0.95641 -0.0229,0.95641 -0.12877,0.11067 c -0.13858,0.11909 -0.44109,0.1502 -0.59408,0.0611 z m 8.59397,-4.18929 v -1.43922 l -2.12268,0.47807 c -1.16747,0.26294 -2.18902,0.48978 -2.2701,0.50409 l -0.14743,0.026 -0.0132,-0.45321 -0.0132,-0.45321 -6.04676,-0.0117 -6.04675,-0.0117 v 1.39999 1.39998 h 8.33006 8.33007 z m 0,-8.38244 v -6.83846 h -8.33007 -8.33006 v 6.79273 6.79273 l 6.04675,-0.0117 6.04676,-0.0117 0.0132,-0.45123 0.0132,-0.45123 0.1704,0.0298 c 0.0937,0.0164 1.09979,0.2433 2.2357,0.5042 1.13592,0.2609 2.0808,0.47634 2.09973,0.47876 0.0189,0.002 0.0344,-3.0729 0.0344,-6.83405 z m -27.21739,9.2386 c -0.2259,-0.15569 -0.22522,-0.15136 -0.22676,-1.4284 l -0.001,-1.20829 0.13416,-0.13416 c 0.21831,-0.21831 0.59636,-0.17071 0.75322,0.0948 0.10883,0.18423 0.11456,2.27199 0.007,2.48035 -0.12859,0.24867 -0.45144,0.34352 -0.66597,0.19566 z"
       id="path8476" />
    <path
       style="fill:none;stroke:#000000;stroke-width:0.8;stroke-linecap:butt;stroke-linejoin:miter;stroke-miterlimit:4;stroke-dasharray:none;stroke-opacity:1"
       d="m 239.42508,96.335748 h 21.58968"
       id="path8987" />
    <path
       style="fill:#009e73;fill-opacity:1;stroke-width:0.3043"
       d="m 154.91346,123.66169 c 0,-3.44875 0.0733,-4.10806 0.45646,-4.10806 0.38037,0 0.45644,0.60861 0.45644,3.65161 v 3.65161 h 5.47742 5.47742 v -5.93387 c 0,-5.07169 0.0664,-5.93387 0.45646,-5.93387 0.39014,0 0.45645,0.86218 0.45645,5.93387 v 5.93387 h 6.23818 6.23817 v -3.65161 c 0,-3.043 0.076,-3.65161 0.45645,-3.65161 0.3832,0 0.45645,0.65931 0.45645,4.10806 v 4.10807 h -13.08494 -13.08496 z"
       id="path9081" />
    <path
       style="fill:none;stroke:#000000;stroke-width:0.8;stroke-linecap:butt;stroke-linejoin:miter;stroke-miterlimit:4;stroke-dasharray:none;stroke-opacity:1"
       d="M 261.01476,96.335748 V 123.11182"
       id="path8987-1" />
    <path
       style="fill:none;stroke:#000000;stroke-width:0.8;stroke-linecap:butt;stroke-linejoin:miter;stroke-miterlimit:4;stroke-dasharray:none;stroke-opacity:1"
       d="M 60.356908,138.6389 H 113.67873"
       id="path8987-0" />
    <path
       style="fill:none;stroke:#000000;stroke-width:0.8;stroke-linecap:butt;stroke-linejoin:miter;stroke-miterlimit:4;stroke-dasharray:none;stroke-opacity:1"
       d="m 88.141797,138.31861 v 26.77608"
       id="path8987-1-9" />
    <path
       style="fill:#0072b2;fill-opacity:1;stroke-width:0.559964;stroke-miterlimit:4;stroke-dasharray:none"
       d="m 76.203484,166.53164 c 0,-3.35823 0.07134,-4.00024 0.444477,-4.00024 0.370394,0 0.444465,0.59264 0.444465,3.55577 v 3.55578 h 5.333657 5.333624 v -5.77813 c 0,-4.93858 0.06462,-5.77813 0.444466,-5.77813 0.379887,0 0.444462,0.83955 0.444462,5.77813 v 5.77813 h 6.074376 6.074369 v -3.55578 c 0,-2.96313 0.0741,-3.55577 0.44447,-3.55577 0.37312,0 0.44446,0.64201 0.44446,4.00024 v 4.00025 H 88.944953 76.203484 Z"
       id="path9081-9-2-7" />
    <path
       style="fill:#56b4e9;fill-opacity:1;stroke-width:0.332031"
       d="m 247.72357,126.95011 c 0,-3.76302 0.0799,-4.48242 0.49805,-4.48242 0.41504,0 0.49804,0.66407 0.49804,3.98438 v 3.98437 h 5.97656 5.97656 v -6.47461 c 0,-5.53385 0.0724,-6.4746 0.49805,-6.4746 0.42568,0 0.49804,0.94075 0.49804,6.4746 v 6.47461 h 6.80663 6.80665 v -3.98437 c 0,-3.32031 0.0829,-3.98438 0.49803,-3.98438 0.41812,0 0.49806,0.7194 0.49806,4.48242 v 4.48242 H 262.0009 247.72357 Z"
       id="path9081-9" />
    <text
       xml:space="preserve"
       style="font-style:normal;font-weight:normal;font-size:10.5833px;line-height:1.25;font-family:sans-serif;fill:#0072b2;fill-opacity:1;stroke:none;stroke-width:0.264583"
       x="37.188091"
       y="183.22174"
       id="text15193"><tspan
         sodipodi:role="line"
         id="tspan15191"
         style="fill:#0072b2;fill-opacity:1;stroke-width:0.264583"
         x="37.188091"
         y="183.22174">Seawater Intake</tspan></text>
    <text
       xml:space="preserve"
       style="font-style:normal;font-weight:normal;font-size:10.5833px;line-height:1.25;font-family:sans-serif;fill:#000000;fill-opacity:1;stroke:none;stroke-width:0.264583"
       x="70.62088"
       y="43.430408"
       id="text25565"><tspan
         sodipodi:role="line"
         id="tspan25563"
         style="stroke-width:0.264583"
         x="70.62088"
         y="43.430408">Check</tspan><tspan
         sodipodi:role="line"
         style="stroke-width:0.264583"
         x="70.62088"
         y="56.659534"
         id="tspan44790">Valves</tspan></text>
    <text
       xml:space="preserve"
       style="font-style:normal;font-weight:normal;font-size:10.5833px;line-height:1.25;font-family:sans-serif;fill:#f0e442;fill-opacity:1;stroke:none;stroke-width:0.264583"
       x="46.298988"
       y="20.005112"
       id="text30272"><tspan
         sodipodi:role="line"
         id="tspan30270"
         style="fill:#f0e442;fill-opacity:1;stroke-width:0.264583"
         x="46.298988"
         y="20.005112">Accumulator</tspan></text>
    <text
       xml:space="preserve"
       style="font-style:normal;font-weight:normal;font-size:10.5833px;line-height:1.25;font-family:sans-serif;fill:#000000;fill-opacity:1;stroke:none;stroke-width:0.264583"
       x="182.32022"
       y="-5.3412323"
       id="text40134"><tspan
         sodipodi:role="line"
         id="tspan40132"
         style="stroke-width:0.264583"
         x="182.32022"
         y="-5.3412323">Pressure</tspan><tspan
         sodipodi:role="line"
         style="stroke-width:0.264583"
         x="182.32022"
         y="7.8878922"
         id="tspan42682">Relief </tspan><tspan
         sodipodi:role="line"
         style="stroke-width:0.264583"
         x="182.32022"
         y="21.117016"
         id="tspan40136">Valve</tspan></text>
    <text
       xml:space="preserve"
       style="font-style:normal;font-weight:normal;font-size:10.5833px;line-height:1.25;font-family:sans-serif;fill:#000000;fill-opacity:1;stroke:none;stroke-width:0.264583"
       x="10.1577"
       y="81.389587"
       id="text48448"><tspan
         sodipodi:role="line"
         id="tspan48446"
         style="stroke-width:0.264583"
         x="10.1577"
         y="81.389587">WEC Driven</tspan><tspan
         sodipodi:role="line"
         style="stroke-width:0.264583"
         x="10.1577"
         y="94.618713"
         id="tspan48450">Piston</tspan></text>
    <text
       xml:space="preserve"
       style="font-style:normal;font-weight:normal;font-size:10.5833px;line-height:1.25;font-family:sans-serif;fill:#000000;fill-opacity:1;stroke:none;stroke-width:0.264583"
       x="136.84009"
       y="78.335266"
       id="text59554"><tspan
         sodipodi:role="line"
         id="tspan59552"
         style="stroke-width:0.264583"
         x="136.84009"
         y="78.335266">Throttle</tspan><tspan
         sodipodi:role="line"
         style="stroke-width:0.264583"
         x="136.84009"
         y="91.564392"
         id="tspan59556">Valve</tspan></text>
    <text
       xml:space="preserve"
       style="font-style:normal;font-weight:normal;font-size:10.5833px;line-height:1.25;font-family:sans-serif;fill:#009e73;fill-opacity:1;stroke:none;stroke-width:0.264583"
       x="137.99483"
       y="138.44962"
       id="text67222"><tspan
         sodipodi:role="line"
         id="tspan67220"
         style="fill:#009e73;fill-opacity:1;stroke-width:0.264583"
         x="137.99483"
         y="138.44962">Brine Outlet</tspan></text>
    <text
       xml:space="preserve"
       style="font-style:normal;font-weight:normal;font-size:10.5833px;line-height:1.25;font-family:sans-serif;fill:#56b4e9;fill-opacity:1;stroke:none;stroke-width:0.264583"
       x="239.93642"
       y="127.2453"
       id="text71426"><tspan
         sodipodi:role="line"
         id="tspan71424"
         style="fill:#56b4e9;fill-opacity:1;stroke-width:0.264583"
         x="239.93642"
         y="127.2453" /><tspan
         sodipodi:role="line"
         style="fill:#56b4e9;fill-opacity:1;stroke-width:0.264583"
         id="tspan71428"
         x="239.93642"
         y="140.47443">Permeate</tspan><tspan
         sodipodi:role="line"
         style="fill:#56b4e9;fill-opacity:1;stroke-width:0.264583"
         x="239.93642"
         y="153.70355"
         id="tspan71430">Outlet</tspan></text>
    <text
       xml:space="preserve"
       style="font-style:normal;font-weight:normal;font-size:10.5833px;line-height:1.25;font-family:sans-serif;fill:#d55e00;fill-opacity:1;stroke:none;stroke-width:0.264583"
       x="205.60892"
       y="66.171974"
       id="text76192"><tspan
         sodipodi:role="line"
         id="tspan76190"
         style="fill:#d55e00;fill-opacity:1;stroke-width:0.264583"
         x="205.60892"
         y="66.171974">RO Membrane</tspan></text>
  </g>
</svg>
