<?xml version="1.0" encoding="UTF-8" standalone="no"?>
<!-- Created with Inkscape (http://www.inkscape.org/) -->

<svg
   width="279.51196mm"
   height="201.57455mm"
   viewBox="0 0 279.51196 201.57456"
   version="1.1"
   id="svg5"
   inkscape:version="1.1.2 (0a00cf5339, 2022-02-04)"
   sodipodi:docname="hydraulic_circuit.svg"
   xmlns:inkscape="http://www.inkscape.org/namespaces/inkscape"
   xmlns:sodipodi="http://sodipodi.sourceforge.net/DTD/sodipodi-0.dtd"
   xmlns:xlink="http://www.w3.org/1999/xlink"
   xmlns="http://www.w3.org/2000/svg"
   xmlns:svg="http://www.w3.org/2000/svg">
  <sodipodi:namedview
     id="namedview7"
     pagecolor="#ffffff"
     bordercolor="#666666"
     borderopacity="1.0"
     inkscape:pageshadow="2"
     inkscape:pageopacity="0.0"
     inkscape:pagecheckerboard="0"
     inkscape:document-units="mm"
     showgrid="false"
     inkscape:zoom="0.74742565"
     inkscape:cx="458.90852"
     inkscape:cy="507.07385"
     inkscape:window-width="1920"
     inkscape:window-height="1011"
     inkscape:window-x="0"
     inkscape:window-y="32"
     inkscape:window-maximized="1"
     inkscape:current-layer="g7449" />
  <defs
     id="defs2">
    <linearGradient
       inkscape:collect="always"
       id="linearGradient5506">
      <stop
         style="stop-color:#e6e6e6;stop-opacity:1"
         offset="0"
         id="stop5502" />
      <stop
         style="stop-color:#666666;stop-opacity:1"
         offset="1"
         id="stop5504" />
    </linearGradient>
    <linearGradient
       id="linearGradient3890"
       inkscape:swatch="solid">
      <stop
         style="stop-color:#666666;stop-opacity:1;"
         offset="0"
         id="stop3888" />
    </linearGradient>
    <linearGradient
       id="linearGradient3866"
       inkscape:swatch="solid">
      <stop
         style="stop-color:#666666;stop-opacity:1;"
         offset="0"
         id="stop3864" />
    </linearGradient>
    <radialGradient
       inkscape:collect="always"
       xlink:href="#linearGradient5506"
       id="radialGradient5721"
       cx="121.15436"
       cy="103.30171"
       fx="121.15436"
       fy="103.30171"
       r="72.099014"
       gradientTransform="matrix(3.4101895,0.00872325,-7.8529419e-4,0.22983834,-326.27583,60.157163)"
       gradientUnits="userSpaceOnUse" />
  </defs>
  <g
     inkscape:label="Layer 1"
     inkscape:groupmode="layer"
     id="layer1"
     transform="translate(-10.509098,18.202949)">
    <path
       style="fill:none;stroke:#000000;stroke-width:2;stroke-linecap:butt;stroke-linejoin:miter;stroke-miterlimit:4;stroke-dasharray:none;stroke-opacity:1"
       d="m 13.860668,84.72576 c 14.162551,0 72.42749,0 72.42749,0"
       id="path5949" />
    <path
       style="fill:none;stroke:#000000;stroke-width:2;stroke-linecap:butt;stroke-linejoin:miter;stroke-miterlimit:4;stroke-dasharray:none;stroke-opacity:1"
       d="M 86.858988,102.16055 V 68.385599"
       id="path6064" />
    <rect
       style="opacity:0.699055;fill:url(#radialGradient5721);fill-opacity:1;stroke:#000000;stroke-width:0.251403;stroke-linejoin:round;paint-order:markers fill stroke"
       id="rect5470"
       width="75.242996"
       height="34.021404"
       x="49.181046"
       y="67.946014" />
    <path
       style="fill:#000000;stroke-width:0.706084;stroke-miterlimit:4;stroke-dasharray:none"
       d="m 119.53242,123.47917 -5.05858,5.05851 v 5.05064 5.05063 h -0.28815 -0.28815 v -5.05056 -5.05054 l -5.06613,-5.06621 -5.06611,-5.06618 0.20714,-0.20902 0.20712,-0.20899 5.0111,5.01103 5.01109,5.011 5.01006,-5.01013 5.01005,-5.01013 0.18458,0.18265 c 0.10144,0.10044 0.18457,0.19754 0.18457,0.21571 0,0.0182 -2.27637,2.3094 -5.05859,5.09159 z m 1.05509,-4.47326 c -0.1807,2.20546 -1.49937,4.1704 -3.48237,5.189 -2.40944,1.23763 -5.3716,0.80664 -7.3347,-1.0672 -0.5724,-0.5464 -1.01437,-1.15619 -1.36099,-1.87788 -0.41974,-0.87391 -0.59288,-1.59552 -0.61896,-2.57987 -0.0101,-0.3843 -0.002,-0.73263 0.0219,-0.92848 0.36789,-3.01501 2.71432,-5.33066 5.72495,-5.6498 l 0.36019,-0.0382 v -5.11674 -5.1167 h 0.28813 0.28814 v 5.1167 5.11674 l 0.3762,0.0389 c 3.08033,0.31936 5.48135,2.78022 5.73824,5.88128 0.0352,0.42461 0.0351,0.59514 -7.3e-4,1.03213 z m -0.57688,-1.06804 c -0.26263,-2.69653 -2.30542,-4.84711 -4.98431,-5.24728 -0.65656,-0.0981 -1.60903,-0.0502 -2.25514,0.11307 -1.93713,0.49001 -3.52528,1.97168 -4.13422,3.85703 -0.22091,0.68395 -0.26135,0.96322 -0.26184,1.80782 -3.7e-4,0.65446 0.008,0.79855 0.0714,1.10694 0.31755,1.56533 1.19745,2.88741 2.5054,3.76447 1.11553,0.74807 2.4786,1.08899 3.81458,0.95414 1.84374,-0.18609 3.49023,-1.23369 4.44649,-2.82914 0.62688,-1.04593 0.91506,-2.32038 0.79754,-3.5271 z"
       id="path6548" />
    <path
       style="fill:#000000;stroke-width:0.706084;stroke-miterlimit:4;stroke-dasharray:none"
       d="m 118.88264,52.802447 -5.05858,5.05851 v 5.05064 5.05063 h -0.28815 -0.28815 v -5.05056 -5.05054 l -5.06613,-5.06621 -5.06611,-5.06618 0.20714,-0.20902 0.20712,-0.20899 5.0111,5.01103 5.01109,5.011 5.01006,-5.01013 5.01005,-5.01013 0.18458,0.18265 c 0.10144,0.10044 0.18457,0.19754 0.18457,0.21571 0,0.0182 -2.27637,2.3094 -5.05859,5.09159 z m 1.0551,-4.47326 c -0.1807,2.20546 -1.49937,4.1704 -3.48237,5.189 -2.40945,1.23763 -5.37161,0.80664 -7.3347,-1.0672 -0.5724,-0.5464 -1.01437,-1.15619 -1.36099,-1.87788 -0.41975,-0.87391 -0.59288,-1.59552 -0.61896,-2.57987 -0.0101,-0.3843 -0.002,-0.73263 0.0219,-0.92848 0.36789,-3.01501 2.71432,-5.33066 5.72494,-5.6498 l 0.36019,-0.0382 v -5.11674 -5.1167 h 0.28813 0.28814 v 5.1167 5.11674 l 0.3762,0.0389 c 3.08033,0.31936 5.48135,2.78022 5.73824,5.88128 0.0352,0.42461 0.0351,0.59514 -7.3e-4,1.03213 z m -0.57688,-1.06804 c -0.26264,-2.69653 -2.30542,-4.84711 -4.98431,-5.24728 -0.65656,-0.0981 -1.60903,-0.0502 -2.25514,0.11307 -1.93713,0.49001 -3.52528,1.97168 -4.13422,3.85703 -0.22091,0.68395 -0.26135,0.96322 -0.26184,1.80782 -3.7e-4,0.65446 0.008,0.79855 0.0714,1.10694 0.31754,1.56533 1.19745,2.88741 2.50539,3.76447 1.11554,0.74807 2.4786,1.08899 3.81459,0.95414 1.84373,-0.18609 3.49022,-1.23369 4.44648,-2.82914 0.62688,-1.04593 0.91506,-2.32038 0.79754,-3.5271 z"
       id="path6548-6" />
    <path
       style="fill:#000000;stroke-width:0.706084;stroke-miterlimit:4;stroke-dasharray:none"
       d="m 65.415488,123.47912 -5.05858,5.05851 v 5.05064 5.05063 h -0.28815 -0.28815 v -5.05056 -5.05054 l -5.06613,-5.06621 -5.06611,-5.06618 0.20714,-0.20902 0.20712,-0.20899 5.0111,5.01103 5.01109,5.011 5.01006,-5.01013 5.01005,-5.01013 0.18458,0.18265 c 0.10144,0.10044 0.18457,0.19754 0.18457,0.21571 0,0.0182 -2.27637,2.3094 -5.05859,5.09159 z m 1.05509,-4.47326 c -0.1807,2.20546 -1.49937,4.1704 -3.48237,5.189 -2.40944,1.23763 -5.3716,0.80664 -7.3347,-1.0672 -0.5724,-0.5464 -1.01437,-1.15619 -1.36099,-1.87788 -0.41974,-0.87391 -0.59288,-1.59552 -0.61896,-2.57987 -0.0101,-0.3843 -0.002,-0.73263 0.0219,-0.92848 0.36789,-3.01501 2.71432,-5.33066 5.72495,-5.6498 l 0.36019,-0.0382 v -5.11674 -5.1167 h 0.28813 0.28814 v 5.1167 5.11674 l 0.3762,0.0389 c 3.08033,0.31936 5.48135,2.78022 5.73824,5.88128 0.0352,0.42461 0.0351,0.59514 -7.3e-4,1.03213 z m -0.57688,-1.06804 c -0.26263,-2.69653 -2.30542,-4.84711 -4.98431,-5.24728 -0.65656,-0.0981 -1.60903,-0.0502 -2.25514,0.11307 -1.93713,0.49001 -3.52528,1.97168 -4.13422,3.85703 -0.22091,0.68395 -0.26135,0.96322 -0.26184,1.80782 -3.7e-4,0.65446 0.008,0.79855 0.0714,1.10694 0.31755,1.56533 1.19745,2.88741 2.5054,3.76447 1.11553,0.74807 2.4786,1.08899 3.81458,0.95414 1.84374,-0.18609 3.49023,-1.23369 4.44649,-2.82914 0.62688,-1.04593 0.91506,-2.32038 0.79754,-3.5271 z"
       id="path6548-3" />
    <path
       style="fill:#000000;stroke-width:0.706084;stroke-miterlimit:4;stroke-dasharray:none"
       d="m 65.944645,52.802447 -5.05858,5.05851 v 5.05064 5.05063 h -0.28815 -0.28815 v -5.05056 -5.05054 l -5.06613,-5.06621 -5.066108,-5.06618 0.20714,-0.20902 0.20712,-0.20899 5.011098,5.01103 5.01109,5.011 5.01006,-5.01013 5.01005,-5.01013 0.18458,0.18265 c 0.10144,0.10044 0.18457,0.19754 0.18457,0.21571 0,0.0182 -2.27637,2.3094 -5.05859,5.09159 z m 1.0551,-4.47326 c -0.1807,2.20546 -1.49937,4.1704 -3.48237,5.189 -2.40945,1.23763 -5.37161,0.80664 -7.3347,-1.0672 -0.5724,-0.5464 -1.01437,-1.15619 -1.36099,-1.87788 -0.41975,-0.87391 -0.59288,-1.59552 -0.61896,-2.57987 -0.0101,-0.3843 -0.002,-0.73263 0.0219,-0.92848 0.36789,-3.01501 2.71432,-5.33066 5.72494,-5.6498 l 0.36019,-0.0382 v -5.11674 -5.1167 h 0.28813 0.28814 v 5.1167 5.11674 l 0.3762,0.0389 c 3.08033,0.31936 5.48135,2.78022 5.73824,5.88128 0.0352,0.42461 0.0351,0.59514 -7.3e-4,1.03213 z m -0.57688,-1.06804 c -0.26264,-2.69653 -2.30542,-4.84711 -4.98431,-5.24728 -0.65656,-0.0981 -1.60903,-0.0502 -2.25514,0.11307 -1.93713,0.49001 -3.52528,1.97168 -4.13422,3.85703 -0.22091,0.68395 -0.26135,0.96322 -0.26184,1.80782 -3.7e-4,0.65446 0.008,0.79855 0.0714,1.10694 0.31754,1.56533 1.19745,2.88741 2.50539,3.76447 1.11554,0.74807 2.4786,1.08899 3.81459,0.95414 1.84373,-0.18609 3.49022,-1.23369 4.44648,-2.82914 0.62688,-1.04593 0.91506,-2.32038 0.79754,-3.5271 z"
       id="path6548-6-7" />
    <path
       style="fill:#000000;stroke:#000000;stroke-width:0.8;stroke-linecap:butt;stroke-linejoin:miter;stroke-miterlimit:4;stroke-dasharray:none;stroke-opacity:1"
       d="m 60.886024,31.143315 c 14.91909,0 137.910256,0 137.910256,0"
       id="path6782" />
    <g
       id="g7449"
       transform="translate(-32.689434,-8.1241509)">
      <ellipse
         style="fill:#e69f00;fill-opacity:1;stroke:#000000;stroke-width:1.09516;stroke-linejoin:round;stroke-miterlimit:4;stroke-dasharray:none;paint-order:markers fill stroke"
         id="path6940"
         cx="161.22124"
         cy="10.294814"
         rx="14.491159"
         ry="19.826033" />
      <path
         style="fill:none;stroke:#000000;stroke-width:1;stroke-linecap:butt;stroke-linejoin:miter;stroke-miterlimit:4;stroke-dasharray:none;stroke-opacity:1"
         d="m 147.2325,4.6170321 h 28.44362"
         id="path7136" />
      <path
         sodipodi:type="star"
         style="fill:#000000;fill-opacity:1;stroke:#000000;stroke-width:3.77953;stroke-linejoin:round;stroke-miterlimit:4;stroke-dasharray:none;paint-order:markers fill stroke"
         id="path7346"
         inkscape:flatsided="true"
         sodipodi:sides="3"
         sodipodi:cx="-195.23656"
         sodipodi:cy="54.913177"
         sodipodi:r1="27.770645"
         sodipodi:r2="13.885322"
         sodipodi:arg1="0.52684214"
         sodipodi:arg2="1.5740397"
         inkscape:rounded="0"
         inkscape:randomized="0"
         d="m -171.23163,68.87643 -48.09992,-0.156006 24.18506,-41.577746 z"
         transform="matrix(-0.12842331,0,0,-0.12842331,136.13837,7.3119687)"
         inkscape:transform-center-x="-0.0057826556"
         inkscape:transform-center-y="0.88658569" />
    </g>
    <path
       style="fill:#000000;stroke:#000000;stroke-width:0.8;stroke-linecap:butt;stroke-linejoin:miter;stroke-miterlimit:4;stroke-dasharray:none;stroke-opacity:1"
       d="m 129.13743,22.057804 c 0,1.033321 0,9.551897 0,9.551897"
       id="path6782-5" />
    <path
       style="fill:#000000;stroke-width:0.607479;stroke-miterlimit:4;stroke-dasharray:none"
       d="m 171.66779,108.35694 -0.20617,0.20616 h -1.87442 -1.87445 v 3.84381 3.84384 h -0.77581 -0.77583 v -3.84384 -3.84381 l -1.85139,-0.002 c -1.64761,-0.002 -1.86793,-0.015 -2.00181,-0.12343 -0.19515,-0.15809 -0.308,-0.38353 -0.308,-0.6153 0,-0.10728 0.45624,-1.00842 1.08246,-2.13814 0.59535,-1.07404 1.5156,-2.73614 2.04503,-3.69355 l 0.96257,-1.74072 -2.04502,-3.698557 c -1.49381,-2.7016 -2.04504,-3.759903 -2.04504,-3.926244 0,-0.164946 0.0661,-0.293832 0.23979,-0.467523 l 0.2398,-0.239793 h 1.8402 1.8402 l 0.0182,-3.826174 0.0182,-3.826201 0.75818,-0.02003 0.75818,-0.02003 v 3.846233 3.846198 h 1.79517 c 1.9379,0 2.09052,0.0244 2.26553,0.362882 0.22276,0.430748 0.43822,-0.007 -3.46829,7.046473 -0.24825,0.44821 -0.45135,0.864136 -0.45135,0.924276 0,0.0602 0.77152,1.5025 1.71449,3.20523 0.94298,1.70273 1.84751,3.33782 2.01007,3.63353 0.36727,0.66804 0.3884,0.96729 0.0894,1.26627 z m -3.26316,-3.92318 c -0.7832,-1.41401 -1.44177,-2.57048 -1.46347,-2.56993 -0.0337,7.8e-4 -2.81771,4.97705 -2.88416,5.15515 -0.0136,0.0363 1.20214,0.0631 2.87406,0.0631 1.59366,0 2.89756,-0.0174 2.89756,-0.0387 0,-0.0213 -0.64079,-1.19557 -1.42399,-2.60958 z m -1.46769,-11.034383 c -1.59043,0 -2.89169,0.01723 -2.89169,0.03851 0,0.105949 2.85577,5.180877 2.90598,5.164151 0.0616,-0.0205 2.87631,-5.058693 2.877,-5.149716 2.1e-4,-0.02915 -1.30086,-0.05285 -2.89129,-0.05285 z"
       id="path7570" />
    <path
       style="fill:#000000;stroke:#000000;stroke-width:0.8;stroke-linecap:butt;stroke-linejoin:miter;stroke-miterlimit:4;stroke-dasharray:none;stroke-opacity:1"
       d="m 184.41882,84.402594 c -1.96816,0 -18.19345,0 -18.19345,0"
       id="path6782-3-5" />
    <g
       id="g8355"
       transform="matrix(1.0037588,0,0,0.73814221,-0.64394111,16.330666)">
      <rect
         style="fill:none;fill-opacity:1;stroke:#d55e00;stroke-width:1.5;stroke-linejoin:round;stroke-miterlimit:4;stroke-dasharray:none;stroke-opacity:1;paint-order:markers fill stroke"
         id="rect7746"
         width="55.56358"
         height="42.382542"
         x="183.60994"
         y="69.244659" />
      <path
         style="fill:none;stroke:#d55e00;stroke-width:1.5;stroke-linecap:butt;stroke-linejoin:miter;stroke-miterlimit:4;stroke-dasharray:none;stroke-opacity:1"
         d="M 183.60994,111.6272 239.17352,69.244659"
         id="path7881"
         sodipodi:nodetypes="cc" />
    </g>
    <path
       style="fill:#000000;stroke-width:0.706084;stroke-miterlimit:4;stroke-dasharray:none"
       d="m 193.1614,46.303095 5.05858,-5.05851 v -5.05064 -5.05063 h 0.28815 0.28815 v 5.05056 5.05054 l 5.06613,5.06621 5.06611,5.06618 -0.20714,0.20902 -0.20712,0.20899 -5.0111,-5.01103 -5.01109,-5.011 -5.01006,5.01013 -5.01005,5.01013 -0.18458,-0.18265 c -0.10144,-0.10044 -0.18457,-0.19754 -0.18457,-0.21571 0,-0.0182 2.27637,-2.3094 5.05859,-5.09159 z m -1.05509,4.47326 c 0.1807,-2.20546 1.49937,-4.1704 3.48237,-5.189 2.40944,-1.23763 5.3716,-0.80664 7.3347,1.0672 0.5724,0.5464 1.01437,1.15619 1.36099,1.87788 0.41974,0.87391 0.59288,1.59552 0.61896,2.57987 0.0101,0.3843 0.002,0.73263 -0.0219,0.92848 -0.36789,3.01501 -2.71432,5.33066 -5.72495,5.6498 l -0.36019,0.0382 v 5.11674 5.1167 h -0.28813 -0.28814 v -5.1167 -5.11674 l -0.3762,-0.0389 c -3.08033,-0.31936 -5.48135,-2.78022 -5.73824,-5.88128 -0.0352,-0.42461 -0.0351,-0.59514 7.3e-4,-1.03213 z m 0.57688,1.06804 c 0.26263,2.69653 2.30542,4.84711 4.98431,5.24728 0.65656,0.0981 1.60903,0.0502 2.25514,-0.11307 1.93713,-0.49001 3.52528,-1.97168 4.13422,-3.85703 0.22091,-0.68395 0.26135,-0.96322 0.26184,-1.80782 3.7e-4,-0.65446 -0.008,-0.79855 -0.0714,-1.10694 -0.31755,-1.56533 -1.19745,-2.88741 -2.5054,-3.76447 -1.11553,-0.74807 -2.4786,-1.08899 -3.81458,-0.95414 -1.84374,0.18609 -3.49023,1.23369 -4.44649,2.82914 -0.62688,1.04593 -0.91506,2.32038 -0.79754,3.5271 z"
       id="path6548-62" />
    <path
       style="fill:#000000;fill-opacity:1;stroke:#000000;stroke-width:0.0332983;stroke-opacity:1"
       d="m 184.21433,24.332923 c -0.1113,0.158859 -0.12705,0.162069 -0.79981,0.163177 -0.70064,0.0014 -0.74228,-0.0088 -0.82081,-0.195242 -0.0605,-0.143669 -0.0183,-0.311789 0.10365,-0.412706 0.0959,-0.07937 0.12453,-0.08456 0.46681,-0.08456 h 0.36466 l 0.0218,-0.143158 c 0.012,-0.07873 0.0318,-0.157621 0.044,-0.175302 0.0556,-0.08055 0.2002,-0.143913 0.32834,-0.143913 0.11838,0 0.15631,0.01813 0.24433,0.116741 0.10203,0.11433 0.10419,0.123743 0.10419,0.455025 0,0.264742 -0.0124,0.35603 -0.0572,0.419938 z m 0,-1.915542 c -0.092,0.131277 -0.15151,0.162061 -0.31558,0.163177 -0.21723,0.0014 -0.31873,-0.09589 -0.34908,-0.334816 -0.0282,-0.222257 -0.005,-1.544286 0.0282,-1.614447 0.0404,-0.08499 0.20893,-0.163386 0.35129,-0.163386 0.11138,0 0.15161,0.01972 0.23822,0.116741 l 0.10419,0.116741 v 0.817165 c 0,0.715909 -0.007,0.827289 -0.0572,0.898825 z m 0,-2.87331 c -0.092,0.131277 -0.15151,0.162061 -0.31558,0.163177 -0.21723,0.0014 -0.31873,-0.09589 -0.34908,-0.334816 -0.0282,-0.222264 -0.005,-1.544293 0.0282,-1.614455 0.0404,-0.08498 0.20893,-0.163378 0.35129,-0.163378 0.11138,0 0.15161,0.01972 0.23822,0.116741 l 0.10419,0.116741 v 0.817165 c 0,0.715909 -0.007,0.827289 -0.0572,0.898825 z m 0.0243,-2.920063 c -0.0459,0.111891 -0.19969,0.21098 -0.32734,0.21098 -0.14984,0 -0.30747,-0.09233 -0.33776,-0.197833 -0.0131,-0.04562 -0.0238,-0.447692 -0.0238,-0.89355 0,-0.909101 0.009,-0.948981 0.23382,-1.021935 0.165,-0.05361 0.33017,0.0036 0.41942,0.145979 0.0642,0.10219 0.0684,0.159305 0.0664,0.897868 -7.3e-4,0.433812 -0.015,0.820129 -0.0308,0.858491 z m 0,-2.87331 c -0.0459,0.111891 -0.19969,0.210973 -0.32734,0.210973 -0.14984,0 -0.30747,-0.09233 -0.33776,-0.197826 -0.0131,-0.04562 -0.0238,-0.447692 -0.0238,-0.89355 0,-0.909101 0.009,-0.948989 0.23382,-1.021935 0.165,-0.05361 0.33017,0.0036 0.41942,0.145979 0.0642,0.10219 0.0684,0.159305 0.0664,0.897868 -7.3e-4,0.433811 -0.015,0.820129 -0.0308,0.858491 z m -0.0344,-2.834905 c -0.0369,0.05951 -0.10578,0.122656 -0.15314,0.140366 -0.0473,0.0177 -0.44844,0.03224 -0.89131,0.03224 -0.65254,0 -0.82381,-0.0094 -0.90327,-0.04987 -0.12507,-0.06361 -0.16719,-0.142675 -0.16719,-0.313782 0,-0.107184 0.0213,-0.157722 0.0981,-0.233359 l 0.0981,-0.09653 h 0.88877 0.88877 l 0.10419,0.116741 c 0.12191,0.136595 0.1323,0.250342 0.0369,0.404251 z m -2.43581,13.42365 c -0.0273,0.04951 -0.0786,0.105227 -0.11395,0.12385 -0.0392,0.02058 -0.40354,0.03382 -0.93193,0.03382 -0.94995,0 -0.96843,-0.0036 -1.04963,-0.196293 -0.0605,-0.143669 -0.0183,-0.311789 0.10366,-0.412706 l 0.10214,-0.08456 h 0.85687 0.85688 l 0.11414,0.112286 c 0.12793,0.125851 0.14845,0.266512 0.0618,0.423565 z M 181.2809,10.931488 c -0.0835,0.141049 -0.18823,0.156873 -1.03805,0.156873 -0.65597,0 -0.82762,-0.0094 -0.90712,-0.04987 -0.12507,-0.06361 -0.16719,-0.142676 -0.16719,-0.313783 0,-0.107184 0.0212,-0.157722 0.0981,-0.233352 l 0.0981,-0.09654 h 0.87804 0.87805 l 0.0981,0.09654 c 0.0788,0.07747 0.0979,0.124765 0.0971,0.23944 -6.5e-4,0.07859 -0.0164,0.168912 -0.0352,0.200697 z m -2.43327,13.407955 c -0.0273,0.04951 -0.0786,0.105227 -0.11395,0.12385 -0.0392,0.02065 -0.40671,0.03382 -0.94197,0.03382 h -0.87767 l -0.0981,-0.09654 c -0.15969,-0.157096 -0.12488,-0.429141 0.0693,-0.542018 0.0816,-0.04742 0.21159,-0.05498 0.94052,-0.05498 h 0.84588 l 0.11414,0.112287 c 0.12793,0.125851 0.14846,0.266504 0.0618,0.423564 z m -0.48751,-13.407955 c -0.0806,0.136055 -0.19802,0.156873 -0.8853,0.156873 h -0.65632 v 2.988907 c 0,2.944867 -7.4e-4,2.989878 -0.0671,3.054959 -0.0661,0.06505 -0.11191,0.06606 -3.10543,0.06606 h -3.03828 v 2.788116 2.788124 l 0.0991,0.02144 c 0.28653,0.06189 0.72937,0.468777 0.89306,0.820511 l 0.0871,0.187154 h 0.53636 c 0.59439,0 0.69379,0.02497 0.78425,0.197077 0.0664,0.126362 0.0644,0.231309 -0.007,0.332254 -0.11024,0.157348 -0.13145,0.162069 -0.73266,0.163177 l -0.57165,7.2e-4 -0.0954,0.21552 c -0.0525,0.11854 -0.16539,0.29213 -0.25087,0.385757 -0.17242,0.188845 -0.49125,0.406438 -0.64386,0.43941 l -0.0991,0.02137 v 2.938384 c 0,3.156437 0.004,3.075676 -0.166,3.165309 -0.12211,0.06426 -0.32478,0.0403 -0.43572,-0.05152 l -0.10329,-0.0855 v -2.967154 -2.967153 l -0.24641,-0.116741 c -0.59487,-0.281472 -0.89604,-0.788726 -0.85024,-1.43205 0.0365,-0.512932 0.34167,-0.937324 0.85376,-1.187385 l 0.24359,-0.118943 -0.009,-2.760865 -0.009,-2.760858 -3.04163,-0.0084 -3.04163,-0.0084 -0.0638,-0.06937 c -0.0616,-0.06692 -0.0644,-0.188672 -0.0806,-3.525413 l -0.0168,-3.456079 -0.14926,-0.6192455 c -0.0821,-0.3405873 -0.15776,-0.6192528 -0.16813,-0.6192528 -0.0104,0 -0.2658,0.9724619 -0.56762,2.1610203 -0.36099,1.421572 -0.5648,2.167079 -0.59564,2.178715 -0.0373,0.0141 -0.14351,-0.0036 -0.14877,-0.02504 -6.5e-4,-0.0029 -0.25494,-0.99184 -0.56511,-2.198324 l -0.56395,-2.1936103 -0.23867,0.9385974 -0.23865,0.9385979 0.63751,2.770414 c 0.35062,1.523726 0.6328,2.79442 0.62706,2.823765 -0.007,0.03483 -0.045,0.05339 -0.10977,0.05339 h -0.0993 l -0.58652,-2.550433 c -0.3226,-1.402733 -0.59272,-2.544344 -0.60029,-2.53691 -0.008,0.0074 -0.12424,0.447548 -0.25929,0.978017 -0.13505,0.530475 -0.26359,0.97547 -0.28564,0.988876 -0.13952,0.08483 -0.14243,0.0759 -0.71004,-2.182695 -0.30068,-1.1964516 -0.556,-2.1646679 -0.56739,-2.1515927 -0.0114,0.013097 -0.2588,0.9823636 -0.54981,2.1539747 -0.29102,1.171619 -0.54647,2.148355 -0.56767,2.170519 -0.0212,0.02216 -0.0702,0.03217 -0.10875,0.02224 -0.0614,-0.01576 -0.11347,-0.175993 -0.41346,-1.270823 -0.18881,-0.689026 -0.33827,-1.278645 -0.33214,-1.310279 0.0139,-0.0716 0.13754,-0.09272 0.1886,-0.03217 0.0209,0.02475 0.13734,0.408172 0.25879,0.852022 0.12144,0.443857 0.24509,0.888758 0.27478,0.98866 l 0.054,0.181649 0.16158,-0.644021 c 0.0889,-0.35421 0.33681,-1.345028 0.55098,-2.2018217 0.26186,-1.0475881 0.40517,-1.5637508 0.43756,-1.5759769 0.0859,-0.032454 0.14742,0.016911 0.18296,0.1467123 0.0192,0.069945 0.2614,1.0307136 0.53834,2.1350713 0.27694,1.104357 0.51266,2.030218 0.52381,2.057469 0.0112,0.02727 0.13065,-0.381043 0.26554,-0.907316 l 0.24526,-0.956847 -0.33483,-1.4540907 c -0.18416,-0.7997503 -0.35923,-1.5618367 -0.38904,-1.6935309 -0.0311,-0.137264 -0.0717,-0.2394401 -0.0952,-0.2394401 -0.0225,0 -0.10519,0.022308 -0.18369,0.049508 -0.0785,0.027273 -0.15594,0.049509 -0.17209,0.049509 -0.0345,0 -0.0386,-1.0283245 -0.007,-1.8399051 l 0.0219,-0.568377 0.51572,1.027425 c 0.28363,0.5650884 0.50683,1.0363552 0.49598,1.0472716 -0.0108,0.010938 -0.1069,0.049581 -0.21346,0.085884 l -0.19374,0.066059 0.33648,1.4609414 c 0.18505,0.8035211 0.3427,1.4548108 0.35031,1.4473198 0.008,-0.0075 0.12196,-0.4332506 0.2541,-0.9461319 0.2471,-0.9590916 0.29363,-1.0692122 0.40317,-0.9542559 0.0257,0.026913 0.29411,1.0179406 0.59654,2.2022238 0.30242,1.184291 0.55909,2.142886 0.57038,2.130214 0.0113,-0.01267 0.26596,-0.991797 0.56592,-2.175836 0.35815,-1.4136928 0.56146,-2.1588686 0.59217,-2.1704613 0.0832,-0.031375 0.14542,0.017126 0.18001,0.1404085 0.0186,0.066275 0.068,0.2691668 0.10977,0.4508301 l 0.0759,0.3302898 0.0168,-2.366207 c 0.0161,-2.2658082 0.0195,-2.3691502 0.0806,-2.4355406 0.0638,-0.069298 0.0639,-0.069298 3.10543,-0.077753 l 3.04163,-0.00842 0.0171,-3.58338414 c 0.009,-1.97086536 0.0208,-3.58731916 0.0252,-3.59212606 0.004,-0.00504 0.0571,-0.038211 0.11713,-0.074191 0.16873,-0.1011975 0.31322,-0.086172 0.44819,0.04663 l 0.11415,0.1122937 V 0.73091022 4.2845676 h 3.05095 c 2.79682,0 3.0548,0.00432 3.09703,0.054618 0.038,0.045047 0.049,0.5773288 0.0628,3.046705 l 0.0168,2.9920944 0.6996,0.01655 0.69961,0.01648 0.081,0.09266 c 0.0871,0.09972 0.10987,0.317409 0.0447,0.4275 z M 175.2957,4.7472568 h -1.05277 l 0.3497,1.5274831 c 0.19234,0.8401127 0.35827,1.5752213 0.36874,1.6335666 l 0.019,0.1060908 -0.33152,0.0095 -0.33152,0.0095 -0.009,4.3512547 -0.009,4.351249 h 1.02407 1.02407 V 10.741578 4.7472496 Z m -6.13166,0 h -5.00226 v 5.9943282 5.994321 h 4.96881 4.96881 l -0.009,-4.351248 -0.009,-4.351256 -0.33007,-0.0095 -0.33007,-0.0095 0.0218,-0.12262 c 0.012,-0.067427 0.17797,-0.7914102 0.36882,-1.6088124 0.19084,-0.8174094 0.34843,-1.4973462 0.3502,-1.5109682 0.001,-0.0136 -2.24779,-0.024754 -4.99903,-0.024754 z m 6.75794,19.5856662 c -0.11389,0.162558 -0.11072,0.162069 -1.04486,0.163177 l -0.88385,7.2e-4 -0.0981,-0.09654 c -0.15969,-0.157096 -0.12487,-0.429142 0.0693,-0.542018 0.13477,-0.07831 1.66194,-0.08244 1.81435,-0.005 0.1819,0.09253 0.25128,0.324856 0.14313,0.479232 z"
       id="path8476" />
    <path
       style="fill:none;stroke:#000000;stroke-width:0.8;stroke-linecap:butt;stroke-linejoin:miter;stroke-miterlimit:4;stroke-dasharray:none;stroke-opacity:1"
       d="m 239.42508,87.339909 h 21.58968"
       id="path8987" />
    <path
       style="fill:#009e73;fill-opacity:1;stroke-width:0.3043"
       d="m 154.91346,123.66169 c 0,-3.44875 0.0733,-4.10806 0.45646,-4.10806 0.38037,0 0.45644,0.60861 0.45644,3.65161 v 3.65161 h 5.47742 5.47742 v -5.93387 c 0,-5.07169 0.0664,-5.93387 0.45646,-5.93387 0.39014,0 0.45645,0.86218 0.45645,5.93387 v 5.93387 h 6.23818 6.23817 v -3.65161 c 0,-3.043 0.076,-3.65161 0.45645,-3.65161 0.3832,0 0.45645,0.65931 0.45645,4.10806 v 4.10807 h -13.08494 -13.08496 z"
       id="path9081" />
    <path
       style="fill:none;stroke:#000000;stroke-width:0.8;stroke-linecap:butt;stroke-linejoin:miter;stroke-miterlimit:4;stroke-dasharray:none;stroke-opacity:1"
       d="M 261.01476,87.339909 V 114.11593"
       id="path8987-1" />
    <path
       style="fill:none;stroke:#000000;stroke-width:0.8;stroke-linecap:butt;stroke-linejoin:miter;stroke-miterlimit:4;stroke-dasharray:none;stroke-opacity:1"
       d="M 60.356908,138.6389 H 113.67873"
       id="path8987-0" />
    <path
       style="fill:none;stroke:#000000;stroke-width:0.8;stroke-linecap:butt;stroke-linejoin:miter;stroke-miterlimit:4;stroke-dasharray:none;stroke-opacity:1"
       d="m 88.141797,138.31861 v 26.77608"
       id="path8987-1-9" />
    <path
       style="fill:#0072b2;fill-opacity:1;stroke-width:0.559964;stroke-miterlimit:4;stroke-dasharray:none"
       d="m 76.203484,166.53164 c 0,-3.35823 0.07134,-4.00024 0.444477,-4.00024 0.370394,0 0.444465,0.59264 0.444465,3.55577 v 3.55578 h 5.333657 5.333624 v -5.77813 c 0,-4.93858 0.06462,-5.77813 0.444466,-5.77813 0.379887,0 0.444462,0.83955 0.444462,5.77813 v 5.77813 h 6.074376 6.074369 v -3.55578 c 0,-2.96313 0.0741,-3.55577 0.44447,-3.55577 0.37312,0 0.44446,0.64201 0.44446,4.00024 v 4.00025 H 88.944953 76.203484 Z"
       id="path9081-9-2-7" />
    <path
       style="fill:#56b4e9;fill-opacity:1;stroke-width:0.332031"
       d="m 247.72357,117.95422 c 0,-3.76302 0.0799,-4.48242 0.49805,-4.48242 0.41504,0 0.49804,0.66407 0.49804,3.98438 v 3.98437 h 5.97656 5.97656 v -6.47461 c 0,-5.53385 0.0724,-6.4746 0.49805,-6.4746 0.42568,0 0.49804,0.94075 0.49804,6.4746 v 6.47461 h 6.80663 6.80665 v -3.98437 c 0,-3.32031 0.0829,-3.98438 0.49803,-3.98438 0.41812,0 0.49806,0.7194 0.49806,4.48242 v 4.48242 H 262.0009 247.72357 Z"
       id="path9081-9" />
    <text
       xml:space="preserve"
       style="font-style:normal;font-weight:normal;font-size:10.5833px;line-height:1.25;font-family:sans-serif;fill:#0072b2;fill-opacity:1;stroke:none;stroke-width:0.264583"
       x="37.188091"
       y="183.22174"
       id="text15193"><tspan
         sodipodi:role="line"
         id="tspan15191"
         style="fill:#0072b2;fill-opacity:1;stroke-width:0.264583;font-weight:bold"
         x="37.188091"
         y="183.22174">Seawater Intake</tspan></text>
    <text
       xml:space="preserve"
       style="font-style:normal;font-weight:normal;font-size:10.5833px;line-height:1.25;font-family:sans-serif;fill:#000000;fill-opacity:1;stroke:none;stroke-width:0.264583"
       x="68.504211"
       y="46.076244"
       id="text25565"><tspan
         sodipodi:role="line"
         id="tspan25563"
         style="font-weight:bold;stroke-width:0.264583"
         x="68.504211"
         y="46.076244">Check</tspan><tspan
         sodipodi:role="line"
         style="font-weight:bold;stroke-width:0.264583"
         x="68.504211"
         y="59.30537"
         id="tspan44790">Valves</tspan></text>
    <text
       xml:space="preserve"
       style="font-style:normal;font-weight:normal;font-size:10.5833px;line-height:1.25;font-family:sans-serif;fill:#e69f00;fill-opacity:1;stroke:none;stroke-width:0.264583"
       x="39.011734"
       y="21.652916"
       id="text30272"><tspan
         sodipodi:role="line"
         id="tspan30270"
         style="font-weight:bold;fill:#e69f00;fill-opacity:1;stroke-width:0.264583"
         x="39.011734"
         y="21.652916">Accumulator</tspan></text>
    <text
       xml:space="preserve"
       style="font-style:normal;font-weight:normal;font-size:10.5833px;line-height:1.25;font-family:sans-serif;fill:#000000;fill-opacity:1;stroke:none;stroke-width:0.264583"
       x="191.58224"
       y="-3.6235223"
       id="text40134"><tspan
         sodipodi:role="line"
         id="tspan40132"
         style="font-weight:bold;stroke-width:0.264583"
         x="191.58224"
         y="-3.6235223">Pressure</tspan><tspan
         sodipodi:role="line"
         style="font-weight:bold;stroke-width:0.264583"
         x="191.58224"
         y="9.6056013"
         id="tspan42682">Relief </tspan><tspan
         sodipodi:role="line"
         style="font-weight:bold;stroke-width:0.264583"
         x="191.58224"
         y="22.834726"
         id="tspan40136">Valve</tspan></text>
    <text
       xml:space="preserve"
       style="font-style:normal;font-weight:normal;font-size:10.5833px;line-height:1.25;font-family:sans-serif;fill:#000000;fill-opacity:1;stroke:none;stroke-width:0.264583"
       x="10.1577"
       y="81.389587"
       id="text48448"><tspan
         sodipodi:role="line"
         id="tspan48446"
         style="stroke-width:0.264583;font-weight:bold"
         x="10.1577"
         y="81.389587">WEC Driven</tspan><tspan
         sodipodi:role="line"
         style="stroke-width:0.264583;font-weight:bold"
         x="10.1577"
         y="94.618713"
         id="tspan48450">Piston</tspan></text>
    <text
       xml:space="preserve"
       style="font-style:normal;font-weight:normal;font-size:10.5833px;line-height:1.25;font-family:sans-serif;fill:#000000;fill-opacity:1;stroke:none;stroke-width:0.264583"
       x="132.60681"
       y="77.276932"
       id="text59554"><tspan
         sodipodi:role="line"
         id="tspan59552"
         style="font-weight:bold;stroke-width:0.264583"
         x="132.60681"
         y="77.276932">Throttle</tspan><tspan
         sodipodi:role="line"
         style="font-weight:bold;stroke-width:0.264583"
         x="132.60681"
         y="90.506058"
         id="tspan59556">Valve</tspan></text>
    <text
       xml:space="preserve"
       style="font-style:normal;font-weight:normal;font-size:10.5833px;line-height:1.25;font-family:sans-serif;fill:#009e73;fill-opacity:1;stroke:none;stroke-width:0.264583"
       x="137.99483"
       y="138.44962"
       id="text67222"><tspan
         sodipodi:role="line"
         id="tspan67220"
         style="fill:#009e73;fill-opacity:1;stroke-width:0.264583;font-weight:bold"
         x="137.99483"
         y="138.44962">Brine Outlet</tspan></text>
    <text
       xml:space="preserve"
       style="font-style:normal;font-weight:normal;font-size:10.5833px;line-height:1.25;font-family:sans-serif;fill:#56b4e9;fill-opacity:1;stroke:none;stroke-width:0.264583"
       x="239.93642"
       y="118.2495"
       id="text71426"><tspan
         sodipodi:role="line"
         id="tspan71424"
         style="fill:#56b4e9;fill-opacity:1;stroke-width:0.264583"
         x="239.93642"
         y="118.2495" /><tspan
         sodipodi:role="line"
         style="fill:#56b4e9;fill-opacity:1;stroke-width:0.264583;font-weight:bold"
         id="tspan71428"
         x="239.93642"
         y="131.47862">Permeate</tspan><tspan
         sodipodi:role="line"
         style="fill:#56b4e9;fill-opacity:1;stroke-width:0.264583;font-weight:bold"
         x="239.93642"
         y="144.70775"
         id="tspan71430">Outlet</tspan></text>
    <text
       xml:space="preserve"
       style="font-style:normal;font-weight:normal;font-size:10.5833px;line-height:1.25;font-family:sans-serif;fill:#d55e00;fill-opacity:1;stroke:none;stroke-width:0.264583"
       x="205.60892"
       y="64.933334"
       id="text76192"><tspan
         sodipodi:role="line"
         id="tspan76190"
         style="fill:#d55e00;fill-opacity:1;stroke-width:0.264583;font-weight:bold"
         x="205.60892"
         y="64.933334">RO Membrane</tspan></text>
    <path
       style="fill:#0072b2;fill-opacity:1;stroke-width:0.559964;stroke-miterlimit:4;stroke-dasharray:none"
       d="m 158.43178,-9.4651886 c 0,3.3582282 0.0713,4.0002389 0.44448,4.0002389 0.3704,0 0.44447,-0.5926407 0.44447,-3.5557689 v -3.5557794 h 5.33365 5.33363 v 5.7781279 c 0,4.93858 0.0646,5.77813 0.44446,5.77813 0.37989,0 0.44447,-0.83955 0.44447,-5.77813 v -5.7781279 h 6.07437 6.07437 v 3.5557794 c 0,2.9631282 0.0741,3.5557689 0.44447,3.5557689 0.37312,0 0.44446,-0.6420107 0.44446,-4.0002389 v -4.0002494 h -12.74136 -12.74147 z"
       id="path9081-9-2-7-3" />
    <text
       xml:space="preserve"
       style="font-style:normal;font-weight:normal;font-size:10.5833px;line-height:1.25;font-family:sans-serif;fill:#0072b2;fill-opacity:1;stroke:none;stroke-width:0.264583"
       x="162.26028"
       y="-15.523808"
       id="text15193-6"><tspan
         sodipodi:role="line"
         id="tspan15191-7"
         style="fill:#0072b2;fill-opacity:1;stroke-width:0.264583"
         x="162.26028"
         y="-15.523808" /></text>
  </g>
</svg>
